<svg xmlns="http://www.w3.org/2000/svg" width="470" height="201" fill="none" viewBox="0 0 470 201"><path fill="#000" d="M22.94 93.8q-4.26 0-7.92-1.8-3.66-1.86-6.36-4.98t-4.2-6.96q-1.44-3.84-1.44-7.92 0-4.32 1.44-8.16 1.5-3.9 4.14-6.9t6.24-4.74 7.86-1.74q6.3 0 10.26 2.58t6 6.72l-3.24 2.16q-2.04-3.96-5.46-5.82t-7.62-1.86q-3.54 0-6.42 1.5-2.82 1.5-4.86 4.02a18.4 18.4 0 0 0-3.12 5.7q-1.02 3.18-1.02 6.6 0 3.6 1.2 6.84 1.2 3.18 3.42 5.7 2.22 2.46 5.1 3.9 2.94 1.38 6.3 1.38 3.9 0 7.38-1.92 3.48-1.98 6.66-6.06v4.44q-6.06 7.32-14.34 7.32m13.68-18h-9.48v-3.24h13.02V93.5h-3.54zm26.93-9.96q-4.08.12-7.2 2.28-3.06 2.16-4.32 5.94V93.5h-4.08V62.24h3.84v7.5q1.62-3.3 4.26-5.34 2.7-2.04 5.7-2.28.6-.06 1.02-.06.48 0 .78.06zM81.487 94.1q-3.36 0-6.24-1.26-2.88-1.32-4.98-3.54-2.1-2.28-3.3-5.22-1.14-2.94-1.14-6.3 0-4.38 1.98-8.04 2.04-3.66 5.58-5.82 3.54-2.22 8.04-2.22 4.62 0 8.04 2.22 3.48 2.22 5.46 5.88 1.98 3.6 1.98 7.92v.96q0 .42-.06.66h-26.76q.3 3.36 1.86 6 1.62 2.58 4.14 4.14 2.58 1.5 5.58 1.5 3.06 0 5.76-1.56 2.76-1.56 3.84-4.08l3.54.96q-.96 2.22-2.94 4.02t-4.68 2.82q-2.64.96-5.7.96m-11.52-17.7h23.1q-.24-3.42-1.86-6-1.56-2.58-4.14-4.02-2.52-1.5-5.58-1.5t-5.58 1.5q-2.52 1.44-4.14 4.08-1.56 2.58-1.8 5.94m30.715 8.1q0-2.94 1.68-5.04 1.68-2.16 4.62-3.3 3-1.2 6.9-1.2 2.28 0 4.74.36t4.38 1.08v-2.64q0-3.96-2.34-6.3t-6.48-2.34q-2.52 0-4.98.96-2.4.9-5.04 2.7l-1.56-2.88q3.06-2.1 6-3.12 2.94-1.08 6-1.08 5.76 0 9.12 3.3t3.36 9.12v14.46q0 .84.36 1.26.36.36 1.14.42v3.24q-.66.06-1.14.12t-.72 0q-1.5-.06-2.28-.96t-.84-1.92l-.06-2.28q-2.1 2.7-5.46 4.2-3.36 1.44-6.84 1.44-3 0-5.46-1.26-2.4-1.32-3.78-3.48-1.32-2.22-1.32-4.86m20.94 2.4q.66-.84 1.02-1.62t.36-1.38v-4.56q-2.04-.78-4.26-1.2-2.16-.42-4.38-.42-4.38 0-7.08 1.74t-2.7 4.74q0 1.74.9 3.3.9 1.5 2.64 2.52 1.74.96 4.08.96 2.94 0 5.46-1.14 2.58-1.14 3.96-2.94m29.041 5.1q-.48.18-1.5.66t-2.46.84-3.12.36q-1.74 0-3.3-.66-1.5-.66-2.4-1.98-.9-1.38-.9-3.36V65.48h-4.32v-3.24h4.32V51.68h4.08v10.56h7.2v3.24h-7.2v21.24q.12 1.68 1.2 2.52 1.14.84 2.58.84 1.68 0 3.06-.54 1.38-.6 1.68-.84zm-83.652 57.5v-42.6h18q2.76 0 5.04 1.14t3.96 3.12q1.74 1.92 2.64 4.32.96 2.34.96 4.8 0 3.06-1.2 5.76-1.14 2.7-3.3 4.56-2.1 1.86-4.98 2.46l10.44 16.44h-4.74l-10.02-15.72h-12.6v15.72zm4.2-19.44h13.92q2.52 0 4.38-1.38t2.88-3.6q1.02-2.28 1.02-4.8 0-2.58-1.2-4.74-1.14-2.22-3.12-3.54-1.92-1.38-4.32-1.38h-13.56zm46.722 20.04q-3.36 0-6.24-1.26-2.88-1.32-4.98-3.54-2.1-2.28-3.3-5.22-1.14-2.94-1.14-6.3 0-4.38 1.98-8.04 2.04-3.66 5.58-5.82 3.54-2.22 8.04-2.22 4.62 0 8.04 2.22 3.48 2.22 5.46 5.88 1.98 3.6 1.98 7.92v.96q0 .42-.06.66h-26.76q.3 3.36 1.86 6 1.62 2.58 4.14 4.14 2.58 1.5 5.58 1.5 3.06 0 5.76-1.56 2.76-1.56 3.84-4.08l3.54.96q-.96 2.22-2.94 4.02t-4.68 2.82q-2.64.96-5.7.96m-11.52-17.7h23.1q-.24-3.42-1.86-6-1.56-2.58-4.14-4.02-2.52-1.5-5.58-1.5t-5.58 1.5q-2.52 1.44-4.14 4.08-1.56 2.58-1.8 5.94m30.714 8.1q0-2.94 1.68-5.04 1.68-2.16 4.62-3.3 3-1.2 6.9-1.2 2.28 0 4.74.36t4.38 1.08v-2.64q0-3.96-2.34-6.3t-6.48-2.34q-2.52 0-4.98.96-2.4.9-5.04 2.7l-1.56-2.88q3.06-2.1 6-3.12 2.94-1.08 6-1.08 5.76 0 9.12 3.3t3.36 9.12v14.46q0 .84.36 1.26.36.36 1.14.42v3.24q-.66.06-1.14.12t-.72 0q-1.5-.06-2.28-.96t-.84-1.92l-.06-2.28q-2.1 2.7-5.46 4.2-3.36 1.44-6.84 1.44-3 0-5.46-1.26-2.4-1.32-3.78-3.48-1.32-2.22-1.32-4.86m20.94 2.4q.66-.84 1.02-1.62t.36-1.38v-4.56q-2.04-.78-4.26-1.2-2.16-.42-4.38-.42-4.38 0-7.08 1.74t-2.7 4.74q0 1.74.9 3.3.9 1.5 2.64 2.52 1.74.96 4.08.96 2.94 0 5.46-1.14 2.58-1.14 3.96-2.94m12.176-8.94q0-4.44 1.8-8.1 1.86-3.72 5.1-5.94t7.38-2.22q3.9 0 6.96 2.1 3.12 2.04 4.86 4.98V105.7h4.08v38.88q0 .84.36 1.26.36.36 1.08.42v3.24q-1.2.18-1.86.12-1.26-.06-2.22-1.02t-.96-2.1v-3.06q-1.86 3.06-5.04 4.86t-6.6 1.8q-3.24 0-6-1.32-2.7-1.32-4.74-3.6a17.8 17.8 0 0 1-3.12-5.16 17.4 17.4 0 0 1-1.08-6.06m26.1 4.8v-9.66q-.78-2.16-2.52-3.9-1.74-1.8-3.96-2.82-2.16-1.08-4.32-1.08-2.52 0-4.56 1.08-2.04 1.02-3.54 2.82-1.44 1.8-2.22 4.08t-.78 4.68q0 2.52.84 4.8.9 2.28 2.52 4.08 1.62 1.74 3.72 2.7t4.56.96q1.56 0 3.24-.6t3.18-1.62q1.56-1.08 2.58-2.52t1.26-3m23.584 11.34q-3.84 0-7.14-1.26t-5.7-3.84l1.68-2.88q2.64 2.46 5.28 3.6 2.7 1.08 5.7 1.08 3.66 0 5.94-1.44 2.28-1.5 2.28-4.26 0-1.86-1.14-2.82-1.08-1.02-3.18-1.62-2.04-.66-4.92-1.38-3.24-.9-5.46-1.86-2.16-1.02-3.3-2.52-1.08-1.56-1.08-4.02 0-3.06 1.5-5.04 1.56-2.04 4.2-3.06 2.7-1.08 6-1.08 3.6 0 6.36 1.14t4.5 3.18l-1.98 2.76a10.1 10.1 0 0 0-4.02-2.82q-2.28-.96-5.1-.96-1.92 0-3.66.54-1.74.48-2.88 1.68-1.08 1.14-1.08 3.18 0 1.68.84 2.64.84.9 2.52 1.56 1.68.6 4.14 1.32 3.54.96 6.18 1.98 2.64.96 4.08 2.52t1.44 4.38q0 4.38-3.3 6.84t-8.7 2.46"/><g clip-path="url(#a)"><path fill="#fff" d="M433.812 167.803H326a14.06 14.06 0 0 1-9.944-24.006 14.07 14.07 0 0 1 9.944-4.119h107.812"/><path stroke="#000" stroke-linejoin="round" stroke-width="3" d="M433.812 167.803H326a14.06 14.06 0 0 1-9.944-24.006 14.07 14.07 0 0 1 9.944-4.119h107.812"/><path fill="#fff" stroke="#000" stroke-linecap="round" stroke-linejoin="round" stroke-width="3" d="M433.812 167.803c-8.981-8.678-9.793-20.165 0-28.125v-9.375H326a23.44 23.44 0 0 0-23.438 23.438A23.44 23.44 0 0 0 326 177.178h107.812z"/><path fill="#fff" d="M304.994 48.231a16.59 16.59 0 0 1 7.194-14.803s11.634 20.938 20.937 30.25"/><path stroke="#000" stroke-linecap="round" stroke-linejoin="round" stroke-width="3" d="M304.994 48.231a16.59 16.59 0 0 1 7.194-14.803s11.634 20.938 20.937 30.25"/><path fill="#fff" stroke="#000" stroke-linecap="round" stroke-linejoin="round" stroke-width="3" d="m337.631 61.503 1.538-1.537a17.68 17.68 0 0 1 22.309-2.21l1.903 1.27s-8.915 14.687-14.978 26.821c-10.484 20.969-29.234 22.047-50.178 3.438A39.4 39.4 0 0 1 285.5 67.872s8.072 7.431 17.375 7.431a27.7 27.7 0 0 1-4.653-34.906s12.187 17.434 24.537 23.631a12.8 12.8 0 0 0 9.779.625 13 13 0 0 0 5.093-3.15"/><path fill="#fff" d="M434.531 47.94a16.62 16.62 0 0 0-7.212-14.512s-11.635 20.938-20.938 30.25"/><path stroke="#000" stroke-linecap="round" stroke-linejoin="round" stroke-width="3" d="M434.531 47.94a16.62 16.62 0 0 0-7.212-14.512s-11.635 20.938-20.938 30.25"/><path fill="#fff" stroke="#000" stroke-linecap="round" stroke-linejoin="round" stroke-width="3" d="m401.872 61.503-1.538-1.537a17.68 17.68 0 0 0-22.309-2.21l-1.9 1.27s8.912 14.687 14.978 26.821c10.484 20.969 29.234 22.047 50.178 3.438a39.4 39.4 0 0 0 12.725-21.404s-8.072 7.422-17.381 7.422a27.694 27.694 0 0 0 4.656-34.906s-12.203 17.434-24.54 23.631a12.8 12.8 0 0 1-9.775.625 13.04 13.04 0 0 1-5.094-3.15m-39.934 50.05a6.25 6.25 0 1 0 0-12.5 6.25 6.25 0 0 0 0 12.5"/><path fill="#fff" d="M421.312 120.928a3.126 3.126 0 1 0 0-6.251 3.126 3.126 0 0 0 0 6.251"/><path stroke="#000" stroke-linecap="round" stroke-linejoin="round" stroke-width="3" d="M440.062.5v4.422m0 13.262v4.422m-11.053-11.053h4.422m13.263 0h4.422m-36.054 137.5h-50m21.876 9.375h28.124m-90.624-9.375h31.25m-6.25 9.375h18.75m3.124-128.125V14.678m-12.5 15.625-6.25-6.25m31.25 6.25 7.813-7.812"/></g><rect width="197" height="197" x="271" y="2" stroke="#000" stroke-width="3" rx="98.5"/><defs><clipPath id="a"><rect width="200" height="200" x="269.5" y=".5" fill="#fff" rx="100"/></clipPath></defs></svg>