<svg xmlns="http://www.w3.org/2000/svg" width="150" height="200" fill="none" viewBox="0 0 150 200"><g fill="#000" clip-path="url(#a)"><path d="M0 190.625C0 195.794 4.39 200 9.783 200h130.434c5.394 0 9.783-4.206 9.783-9.375V46.875c0-5.169-4.389-9.375-9.783-9.375H22.827c-8.994 0-16.305-7.006-16.305-15.625S13.832 6.25 22.826 6.25h120.652c1.8 0 3.261-1.4 3.261-3.125S145.278 0 143.478 0H22.826C10.24 0 0 9.813 0 21.875c0 .769.046 1.525.124 2.275A3 3 0 0 0 0 25zM6.522 37.169c4.148 4.062 9.92 6.581 16.304 6.581h117.391c1.794 0 3.261 1.406 3.261 3.125v143.75c0 1.719-1.467 3.125-3.261 3.125H9.783c-1.794 0-3.261-1.406-3.261-3.125z"/><path d="M143.478 18.75H26.087c-1.8 0-3.261 1.4-3.261 3.125S24.286 25 26.086 25h117.392c1.8 0 3.261-1.4 3.261-3.125s-1.461-3.125-3.261-3.125"/></g><path fill="#000" d="M60.43 111.16q-2.272 0-4.225-.96a11.1 11.1 0 0 1-3.392-2.656 12.7 12.7 0 0 1-2.24-3.712 11.9 11.9 0 0 1-.768-4.224q0-2.304.768-4.352a12.1 12.1 0 0 1 2.208-3.68 10.4 10.4 0 0 1 3.328-2.528q1.92-.928 4.192-.928 3.36 0 5.472 1.376t3.2 3.584l-1.728 1.152q-1.088-2.112-2.912-3.104t-4.064-.992q-1.887 0-3.424.8a8.4 8.4 0 0 0-2.592 2.144 9.8 9.8 0 0 0-1.664 3.04 11.5 11.5 0 0 0-.544 3.52q0 1.92.64 3.648a9.8 9.8 0 0 0 1.824 3.04 9.2 9.2 0 0 0 2.72 2.08 7.8 7.8 0 0 0 3.36.736 8 8 0 0 0 3.936-1.024q1.857-1.056 3.552-3.232v2.368q-3.232 3.904-7.648 3.904m7.295-9.6H62.67v-1.728h6.944V111h-1.888zM67.622 139v-22.72h9.6q1.471 0 2.688.608 1.216.608 2.112 1.664a7.1 7.1 0 0 1 1.408 2.304q.512 1.248.512 2.56a7.5 7.5 0 0 1-.64 3.072 6.5 6.5 0 0 1-1.76 2.432 5.7 5.7 0 0 1-2.656 1.312L84.454 139h-2.528l-5.344-8.384h-6.72V139zm2.24-10.368h7.424q1.344 0 2.336-.736a4.9 4.9 0 0 0 1.536-1.92 6.2 6.2 0 0 0 .544-2.56q0-1.376-.64-2.528A4.9 4.9 0 0 0 79.398 119a3.85 3.85 0 0 0-2.304-.736h-7.232z"/><defs><clipPath id="a"><path fill="#fff" d="M0 0h150v200H0z"/></clipPath></defs></svg>